<?xml version="1.0" encoding="utf-8"?>
<!-- Generator: Adobe Illustrator 26.0.3, SVG Export Plug-In . SVG Version: 6.00 Build 0)  -->
<svg version="1.1" id="Layer_1" xmlns="http://www.w3.org/2000/svg" xmlns:xlink="http://www.w3.org/1999/xlink" x="0px" y="0px"
	 viewBox="0 0 45 45" style="enable-background:new 0 0 45 45;" xml:space="preserve">
<style type="text/css">
	.st0{fill:#016672;}
</style>
<path class="st0" d="M14.7,30.65c-0.58-0.23-1.18-0.47-1.79-0.72c-5.6-2.3-6.64-7.36-2.12-11.47c2.17-1.97,3.36-3.66,2.38-6.8
	c-1.64-5.26,2.4-9.15,7.82-7.7c1.29,0.35,2.39,0.88,3.32,1.56c0.69,0.5,4.15,2.94,4.26,6.84c0.03,1.24-0.28,2.25-0.54,2.89
	c0.75,0.17,1.85,0.53,2.96,1.31c3.07,2.17,3.6,5.8,3.77,6.83c0.27,1.62,0.17,3.32-0.35,5.12c-1.52,5.31-3.67,10.42-9.57,12.26
	C17.95,42.94,13.65,38.6,14.7,30.65z M31.84,30.73c1.6-4.36,1.86-8.54-1.69-12.19c-2.34-2.41-6.18-2.99-8.22-1.13
	c-0.63,0.58-0.99,1.16-1.16,1.74c-0.47,1.65,0.72,2.54,1.2,5.6c0.31,1.97,0,2.79-0.1,3.03c-0.08,0.2-0.64,1.48-1.98,2.11
	c-1.2,0.56-1.74,0-2.54,0.48c-1.28,0.76-1.57,3.24-0.93,5.03c0.6,1.69,2.12,2.93,3.64,3.45C24.81,40.47,29.23,37.25,31.84,30.73z
	 M26.83,14.06c-0.03-0.54-0.12-1.49-0.53-2.58c-1.45-3.83-5.98-7.14-9.16-5.96c-0.12,0.05-1.91,0.74-2.38,2.3
	c-0.52,1.74,1.12,2.83,1.07,5.98c-0.02,1.26-0.3,2-0.39,2.22c-0.54,1.36-1.48,2.03-2.18,2.68c-0.5,0.46-3.54,3.23-3.23,5.73
	c0.3,2.46,3.89,4.73,6.67,4.09c2.73-0.63,3.43-2.52,2.87-5.14C18.18,16.84,19.45,15.17,26.83,14.06z"/>
</svg>
