<?xml version="1.0" encoding="utf-8"?>
<!-- Generator: Adobe Illustrator 26.0.3, SVG Export Plug-In . SVG Version: 6.00 Build 0)  -->
<svg version="1.1" id="Layer_1" xmlns="http://www.w3.org/2000/svg" xmlns:xlink="http://www.w3.org/1999/xlink" x="0px" y="0px"
	 viewBox="0 0 40 40" style="enable-background:new 0 0 40 40;" xml:space="preserve">
<style type="text/css">
	.st0{fill:#016672;}
</style>
<path class="st0" d="M40,27.9c-0.21,0.2-0.39,0.46-0.64,0.59c-4.32,2.39-8.65,4.76-12.98,7.14c-0.4,0.22-0.73,0.21-1.13-0.01
	c-4.33-2.39-8.67-4.77-13.02-7.15c-0.41-0.23-0.61-0.52-0.59-0.99c0.02-0.44,0-0.88,0-1.38c-0.15,0-0.29,0-0.42,0
	c-1.96,0-3.92,0-5.88,0c-0.17,0-0.34-0.01-0.5-0.06C4.5,25.93,4.3,25.6,4.32,25.26c0.03-0.36,0.31-0.66,0.67-0.7
	c0.14-0.02,0.28-0.01,0.43-0.01c2.05,0,4.1,0,6.18,0c0-1.34,0-2.67,0-4.05c-0.13,0-0.26,0-0.4,0c-1.32,0-2.65,0-3.97,0
	c-0.37,0-0.66-0.16-0.78-0.52c-0.1-0.3-0.07-0.62,0.2-0.81c0.19-0.13,0.45-0.21,0.68-0.21c1.41-0.02,2.83-0.01,4.27-0.01
	c0-0.93,0-1.84,0-2.8c-0.14,0-0.29,0-0.44,0c-2.74,0-5.48,0-8.21,0c-0.13,0-0.26,0.01-0.39-0.01c-0.42-0.06-0.69-0.4-0.67-0.82
	c0.02-0.4,0.31-0.7,0.72-0.72c0.3-0.02,0.6-0.01,0.9-0.01c2.56,0,5.11,0,7.67,0c0.14,0,0.28,0,0.46,0c0-0.51,0.01-0.99,0-1.46
	c-0.01-0.41,0.16-0.68,0.52-0.88c4.37-2.4,8.75-4.8,13.12-7.21c0.37-0.2,0.69-0.21,1.06-0.01c4.37,2.41,8.74,4.81,13.11,7.22
	c0.2,0.11,0.36,0.32,0.54,0.48c0,1.84,0,3.69,0,5.53c-0.37,0.46-0.67,0.59-1.04,0.46c-0.37-0.13-0.52-0.42-0.52-1.02
	c0-0.96,0-1.92,0-2.88c0-0.15,0-0.29,0-0.5c-1.21,0.66-2.34,1.28-3.47,1.92c-0.11,0.06-0.17,0.27-0.17,0.41
	c-0.01,1.23-0.01,2.46-0.01,3.7c0,0.34-0.1,0.62-0.4,0.78c-0.95,0.53-1.9,1.06-2.86,1.57c-0.54,0.29-1.1-0.04-1.16-0.65
	c-0.02-0.3-0.01-0.6-0.01-0.89c0-0.77,0-1.55,0-2.38c-0.18,0.09-0.31,0.15-0.43,0.21c-1,0.55-1.99,1.11-3,1.64
	c-0.25,0.13-0.33,0.29-0.33,0.57c0.01,4.03,0.01,8.07,0.01,12.1c0,0.13,0,0.25,0,0.42c0.11-0.05,0.19-0.08,0.25-0.11
	c3.78-2.08,7.56-4.15,11.34-6.24c0.12-0.07,0.23-0.27,0.23-0.41c0.02-0.89,0.01-1.79,0.01-2.68c0-0.41,0.22-0.71,0.56-0.79
	c0.38-0.1,0.69,0.04,0.92,0.41c0.03,0.04,0.05,0.09,0.08,0.13C40,25.31,40,26.6,40,27.9z M25.04,33.72
	c0.01-0.13,0.01-0.19,0.01-0.26c0-4.12,0-8.25,0.01-12.37c0-0.26-0.12-0.36-0.31-0.46c-3.74-2.05-7.47-4.1-11.21-6.15
	c-0.09-0.05-0.18-0.09-0.3-0.15c-0.01,0.13-0.02,0.21-0.02,0.3c0,4.1,0,8.2-0.01,12.29c0,0.28,0.13,0.38,0.33,0.49
	c2.83,1.55,5.65,3.1,8.48,4.65C23.01,32.61,23.99,33.15,25.04,33.72z M29.53,17.42c-1.17-0.64-2.28-1.25-3.39-1.86
	c-2.69-1.48-5.38-2.96-8.07-4.43c-0.13-0.07-0.34-0.14-0.45-0.08c-1.18,0.62-2.34,1.27-3.54,1.93c0.14,0.08,0.25,0.15,0.36,0.21
	c1.38,0.76,2.77,1.52,4.15,2.28c2.32,1.27,4.63,2.54,6.95,3.81c0.13,0.07,0.34,0.13,0.45,0.07C27.15,18.74,28.31,18.09,29.53,17.42z
	 M37.57,13.01c-0.05-0.05-0.07-0.07-0.09-0.08c-3.81-2.1-7.63-4.2-11.45-6.28c-0.11-0.06-0.33-0.04-0.45,0.03
	c-0.97,0.52-1.93,1.05-2.9,1.58c-0.12,0.07-0.24,0.13-0.4,0.23c1.35,0.74,2.64,1.45,3.93,2.16c2.51,1.38,5.02,2.76,7.53,4.13
	c0.14,0.07,0.36,0.12,0.49,0.05C35.34,14.24,36.44,13.63,37.57,13.01z M32.42,15.83c-3.92-2.15-7.76-4.26-11.6-6.37
	c-0.08-0.04-0.21-0.06-0.28-0.03c-0.37,0.19-0.74,0.4-1.16,0.63c0.85,0.47,1.63,0.9,2.41,1.33c3.01,1.65,6.02,3.31,9.03,4.96
	c0.13,0.07,0.33,0.15,0.45,0.1C31.64,16.29,31.99,16.07,32.42,15.83z M31.92,20.67c0.12-0.05,0.19-0.09,0.26-0.11
	c0.84-0.28,1.22-0.8,1.07-1.73c-0.09-0.52-0.02-1.07-0.02-1.66c-0.44,0.24-0.8,0.43-1.15,0.64c-0.08,0.05-0.15,0.18-0.15,0.27
	C31.92,18.92,31.92,19.76,31.92,20.67z"/>
<path class="st0" d="M40,21.36c-0.05,0.07-0.11,0.13-0.16,0.2c-0.3,0.37-0.83,0.41-1.16,0.08c-0.32-0.32-0.31-0.83,0.03-1.13
	s0.88-0.23,1.15,0.15c0.05,0.07,0.09,0.15,0.14,0.23C40,21.05,40,21.21,40,21.36z"/>
<path class="st0" d="M1.46,24.55c0.21,0,0.41-0.01,0.62,0c0.41,0.03,0.7,0.33,0.72,0.73s-0.23,0.76-0.63,0.8
	c-0.46,0.04-0.93,0.04-1.39,0c-0.39-0.04-0.66-0.43-0.63-0.81c0.03-0.39,0.33-0.69,0.74-0.71C1.07,24.54,1.27,24.55,1.46,24.55z"/>
<path class="st0" d="M3.31,19.72c0-0.43,0.33-0.77,0.75-0.78c0.44-0.01,0.8,0.36,0.79,0.79c-0.01,0.41-0.37,0.77-0.78,0.76
	C3.65,20.49,3.32,20.15,3.31,19.72z"/>
</svg>
