<?xml version="1.0" encoding="utf-8"?>
<!-- Generator: Adobe Illustrator 26.0.3, SVG Export Plug-In . SVG Version: 6.00 Build 0)  -->
<svg version="1.1" id="Layer_1" xmlns="http://www.w3.org/2000/svg" xmlns:xlink="http://www.w3.org/1999/xlink" x="0px" y="0px"
	 viewBox="0 0 40 40" style="enable-background:new 0 0 40 40;" xml:space="preserve">
<style type="text/css">
	.st0{fill:#FFFFFF;}
</style>
<path d="M33.67,0c0.23,0,0.47,0,0.7,0c0.08,0.03,0.16,0.06,0.25,0.08c2.69,0.64,4.43,2.28,5.18,4.95c0.08,0.3,0.14,0.6,0.2,0.91
	c0,5.29,0,10.57,0,15.86c-0.04,0.11-0.09,0.21-0.12,0.32c-0.26,0.8-0.78,1.38-1.56,1.68c-0.28,0.11-0.33,0.25-0.33,0.51
	c0.01,3.7,0,7.41,0,11.11c0,0.66,0.01,1.33-0.01,1.99c-0.04,1.14-0.77,2.09-1.85,2.45c-0.12,0.04-0.23,0.09-0.35,0.14
	c-0.29,0-0.57,0-0.86,0c-1.77-0.63-2.26-1.34-2.26-3.25c0-2.17,0-4.35,0-6.52c0-0.13,0-0.27,0-0.5c-0.38,0.56-0.68,1.03-1.01,1.48
	c-2.42,3.31-5.5,5.91-8.9,8.15c-0.36,0.23-0.74,0.42-1.11,0.63c-0.21,0-0.42,0-0.62,0c-0.21-0.11-0.42-0.19-0.62-0.32
	c-0.99-0.67-2-1.32-2.95-2.05c-2.86-2.19-5.43-4.66-7.34-7.75c-0.02-0.02-0.05-0.04-0.12-0.07c0,0.18,0,0.32,0,0.46
	c0,2.32,0,4.63,0,6.95c0,1.34-0.8,2.37-2.09,2.72C7.85,39.94,7.79,39.97,7.73,40c-0.29,0-0.57,0-0.86,0
	c-1.78-0.53-2.23-1.73-2.22-3.29c0.04-6.95,0.02-13.9,0.02-20.85c0-0.16,0-0.33,0-0.47c-0.08-0.03-0.1-0.05-0.13-0.05
	c-0.05-0.01-0.1-0.01-0.16-0.01c-1.68-0.14-2.97-0.93-3.79-2.39C0.32,12.41,0.2,11.81,0,11.25c0-3.2,0-6.41,0-9.61
	C0.26,0.8,0.79,0.25,1.64,0c0.23,0,0.47,0,0.7,0c1.35,0.42,1.69,1.31,1.66,2.43C3.96,4.01,3.99,5.58,4,7.15
	c0,0.51,0.27,0.83,0.68,0.83c0.42,0,0.65-0.29,0.65-0.83c0-1.55,0.03-3.1-0.01-4.64C5.28,1.26,5.74,0.4,6.95,0c0.26,0,0.52,0,0.78,0
	C8.95,0.41,9.4,1.27,9.35,2.52C9.3,4,9.34,5.48,9.34,6.97c0,0.17,0,0.34,0.04,0.5c0.08,0.32,0.3,0.52,0.65,0.51
	c0.34-0.01,0.56-0.2,0.62-0.54c0.03-0.14,0.02-0.28,0.02-0.43c0-1.61,0.01-3.23,0-4.84c0-0.6,0.13-1.16,0.59-1.56
	C11.55,0.36,11.93,0.2,12.27,0c0.26,0,0.52,0,0.78,0c0.98,0.33,1.62,0.95,1.62,2.04c0.01,2.89,0.03,5.78-0.01,8.67
	c-0.02,1.76-0.85,3.11-2.36,4.01c-0.69,0.41-1.46,0.59-2.27,0.62c0,0.9,0,1.77,0,2.7c0.13-0.12,0.23-0.2,0.33-0.28
	c1.34-1.14,2.88-1.72,4.65-1.75c1.96-0.03,3.62,0.72,5.13,1.9c0.42,0.33,0.81,0.69,1.18,1.02c0.63-0.5,1.23-1.03,1.88-1.48
	c3.1-2.16,6.9-1.81,9.37,0.53c0.01,0.01,0.05,0,0.1,0.01c0-0.14,0-0.28,0-0.42c0-5.27,0.01-10.55-0.01-15.82
	C32.65,0.92,32.9,0.32,33.67,0z M9.34,23.16c0.05,2.28,0.83,4.33,2.04,6.22c2.47,3.88,5.94,6.72,9.77,9.17
	c0.1,0.06,0.31,0.05,0.41-0.01c0.5-0.3,0.99-0.63,1.47-0.96c2.8-1.96,5.37-4.17,7.41-6.93c1.58-2.14,2.7-4.46,2.9-7.17
	c0.28-3.88-3.23-6.92-7.02-6.02c-1.72,0.41-3.07,1.43-4.25,2.7c-0.58,0.62-0.86,0.63-1.43,0.01c-0.9-0.98-1.92-1.79-3.14-2.34
	C13.57,16.08,9.23,18.92,9.34,23.16z M6.01,26.06c0,2.36,0,4.71,0,7.07c0,1.41,0,2.81,0,4.22c0,0.58,0.3,0.99,0.82,1.22
	c0.51,0.22,0.97,0.1,1.37-0.26c0.35-0.31,0.47-0.73,0.47-1.19c-0.01-3.05-0.01-6.09,0-9.14c0-0.69-0.09-1.36-0.27-2.03
	c-0.52-1.95-0.64-3.9,0.2-5.81c0.06-0.13,0.06-0.3,0.06-0.46c0-1.63,0-3.25,0-4.88c0-0.49,0.23-0.75,0.67-0.79
	c0.14-0.01,0.29,0,0.43,0c2.17,0,3.57-1.39,3.57-3.56c0-2.72,0-5.44,0-8.16c0-0.15,0-0.32-0.05-0.46c-0.09-0.31-0.32-0.48-0.64-0.47
	c-0.32,0.01-0.53,0.21-0.61,0.51C12,2,12.01,2.16,12.01,2.32c0,1.58,0,3.15,0,4.73c0,0.22-0.01,0.44-0.05,0.66
	c-0.14,0.84-0.86,1.51-1.69,1.6C9.02,9.45,8.01,8.53,8,7.2c-0.02-1.29,0-2.58,0-3.87C7.99,2.9,8,2.45,7.99,2.01
	C7.97,1.62,7.71,1.36,7.36,1.34C7.03,1.32,6.74,1.58,6.68,1.96C6.66,2.08,6.66,2.22,6.66,2.35c0,1.64,0.01,3.28,0,4.92
	c0,0.92-0.5,1.64-1.3,1.94c-1.31,0.48-2.68-0.5-2.69-1.95c-0.01-1.71,0-3.41,0-5.12c0-0.49-0.26-0.8-0.66-0.8
	c-0.39,0-0.67,0.33-0.67,0.8c0,2.86-0.01,5.73,0,8.59c0,0.81,0.29,1.53,0.83,2.14c0.76,0.86,1.74,1.18,2.87,1.14
	c0.77-0.03,0.97,0.2,0.97,0.97C6.01,18.66,6.01,22.36,6.01,26.06z M33.99,1.36c0,0.15,0,0.31,0,0.46c0,5.68,0,11.35,0,17.03
	c0,0.67,0.06,1.3,0.29,1.94c0.68,1.91,0.37,3.82-0.17,5.71C34.05,26.72,34,26.96,34,27.19c-0.01,3.29,0,6.59,0,9.88
	c0,0.1,0,0.21,0,0.31c0.05,0.68,0.55,1.21,1.2,1.28c0.6,0.06,1.24-0.39,1.4-1.01c0.05-0.21,0.05-0.44,0.05-0.66
	c0-4.43,0-8.85,0-13.28c0-0.13-0.01-0.26,0.01-0.39c0.04-0.39,0.26-0.61,0.65-0.66c0.94-0.12,1.35-0.59,1.35-1.53
	c0-4.78,0-9.56-0.01-14.33c0-0.48-0.05-0.96-0.16-1.43C38.03,3.25,36.06,1.5,33.99,1.36z"/>
<path class="st0" d="M7.73,40c0.06-0.03,0.11-0.06,0.17-0.07c1.29-0.35,2.09-1.37,2.09-2.72c0.01-2.32,0-4.63,0-6.95
	c0-0.14,0-0.28,0-0.46c0.06,0.04,0.1,0.05,0.12,0.07c1.91,3.09,4.48,5.57,7.34,7.75c0.95,0.73,1.96,1.37,2.95,2.05
	c0.19,0.13,0.41,0.22,0.62,0.32C16.59,40,12.16,40,7.73,40z"/>
<path d="M18.57,26.72c-0.21,0.51-0.4,0.95-0.56,1.4c-0.14,0.38-0.39,0.55-0.8,0.55c-0.81-0.01-1.61,0-2.42,0
	c-0.48,0-0.79-0.28-0.78-0.68c0.01-0.39,0.31-0.64,0.77-0.65c0.59,0,1.17-0.02,1.76,0.01c0.27,0.01,0.39-0.07,0.49-0.32
	c0.31-0.83,0.65-1.64,0.97-2.47c0.13-0.33,0.32-0.58,0.71-0.56c0.38,0.02,0.56,0.28,0.66,0.62c0.44,1.48,0.89,2.96,1.33,4.44
	c0.03,0.08,0.06,0.16,0.12,0.31c0.5-1.13,0.98-2.19,1.45-3.25c0.15-0.33,0.29-0.67,0.44-1c0.13-0.29,0.33-0.46,0.66-0.45
	c0.31,0.01,0.5,0.19,0.62,0.46c0.44,1.01,0.87,2.03,1.31,3.05c0.05,0.11,0.11,0.23,0.19,0.4c0.21-0.31,0.4-0.57,0.57-0.84
	c0.18-0.28,0.41-0.41,0.74-0.41c0.82,0.01,1.64,0,2.46,0.01C29.7,27.34,30,27.61,30,28c0,0.39-0.3,0.66-0.76,0.67
	c-0.64,0.01-1.28-0.01-1.91,0.01c-0.16,0.01-0.36,0.12-0.46,0.24c-0.33,0.44-0.62,0.9-0.92,1.36c-0.16,0.25-0.37,0.4-0.68,0.37
	c-0.31-0.03-0.48-0.22-0.59-0.5c-0.44-1.03-0.88-2.05-1.35-3.14c-0.08,0.17-0.14,0.29-0.2,0.41c-0.59,1.33-1.19,2.66-1.77,3.99
	c-0.15,0.34-0.34,0.6-0.74,0.57c-0.4-0.03-0.55-0.32-0.65-0.67c-0.42-1.43-0.86-2.86-1.29-4.29C18.65,26.95,18.62,26.88,18.57,26.72
	z"/>
</svg>
