<?xml version="1.0" encoding="utf-8"?>
<!-- Generator: Adobe Illustrator 26.0.3, SVG Export Plug-In . SVG Version: 6.00 Build 0)  -->
<svg version="1.1" id="Layer_1" xmlns="http://www.w3.org/2000/svg" xmlns:xlink="http://www.w3.org/1999/xlink" x="0px" y="0px"
	 viewBox="0 0 45 45" style="enable-background:new 0 0 45 45;" xml:space="preserve">
<style type="text/css">
	.st0{fill:#016672;}
</style>
<path class="st0" d="M38.67,15.43c0,1.24,0.03,2.48-0.01,3.72c-0.03,0.9-0.44,1.68-0.97,2.4c-0.12,0.16-0.19,0.41-0.18,0.61
	c0.1,1.84,0.23,3.69,0.34,5.53c0.1,1.75-0.07,3.48-0.55,5.17c-0.04,0.16,0.01,0.39,0.11,0.52c0.51,0.71,1.09,1.38,1.58,2.11
	c0.42,0.64,0.84,1.3,1.11,2.01c0.46,1.2,0,2.26-1.13,2.87c-0.96,0.52-2.02,0.65-3.08,0.66c-0.72,0-1.48-0.04-2.14-0.28
	c-1.41-0.52-2.79-0.48-4.24-0.28c-4.3,0.57-8.62,0.82-12.95,0.28c-1.37-0.17-2.74-0.24-4.11-0.39c-1.23-0.14-2.4,0.2-3.59,0.41
	c-1.13,0.2-2.26,0.4-3.43,0.24c-1.36-0.19-2.13-0.98-2.33-2.33c-0.16-1.04,0.07-1.99,0.52-2.9c0.52-1.04,1.07-2.07,1.61-3.1
	c0.08-0.15,0.14-0.3,0.22-0.45c0.2-0.35,0.2-0.63-0.1-0.96c-0.9-0.97-0.79-2.15-0.65-3.35c0.22-1.89,0.41-3.79,0.58-5.69
	c0.06-0.63-0.04-1.24-0.32-1.85c-0.24-0.55-0.34-1.2-0.36-1.8c-0.05-1.63-0.03-3.27-0.01-4.91c0.03-1.94,0.97-3.37,2.65-4.23
	C8.05,9.03,9,8.9,9.88,8.64c0.7-0.2,1.4-0.38,2.1-0.58c0.13-0.04,0.28-0.07,0.37-0.16c0.67-0.64,1.49-0.83,2.37-0.89
	c0.83-0.05,1.52-0.35,2.18-0.88c0.76-0.61,1.6-1.15,2.46-1.61c1.82-0.96,3.71-0.95,5.53-0.01c0.98,0.5,1.93,1.09,2.79,1.77
	c1.43,1.13,3.01,1.73,4.83,1.81c1.15,0.05,2.3,0.23,3.35,0.73c0.6,0.28,1.18,0.62,1.7,1.02c0.79,0.61,1.16,1.44,1.15,2.46
	c-0.02,1.04,0,2.09,0,3.13C38.7,15.43,38.68,15.43,38.67,15.43z M36.08,23c-0.58,0.28-1.02,0.52-1.47,0.71
	c-2.49,1.05-5.12,1.42-7.78,1.64c-3.43,0.28-6.87,0.28-10.3,0.01c-2.34-0.18-4.67-0.49-6.89-1.29c-0.96-0.34-1.87-0.83-2.8-1.25
	c0,0-0.02,0.06-0.03,0.12c-0.21,2.02-0.41,4.03-0.64,6.05C6.1,29.54,6.25,30,6.6,30.4c0.18,0.21,0.35,0.43,0.56,0.59
	c1.06,0.78,2.12,1.55,3.19,2.31c0.43,0.3,0.55,0.68,0.32,1.08c-0.23,0.4-0.65,0.51-1.09,0.26c-0.47-0.27-0.94-0.56-1.39-0.86
	c-0.45-0.3-0.88-0.61-1.33-0.94c-0.67,1.32-1.33,2.6-1.98,3.88c-0.27,0.54-0.36,1.11-0.26,1.72c0.12,0.68,0.33,1,1.01,1
	c1.01-0.01,2.02-0.09,3.02-0.24c1.31-0.2,2.61-0.54,3.96-0.4c1.38,0.15,2.78,0.23,4.16,0.4c3.66,0.46,7.31,0.3,10.96-0.09
	c1.05-0.11,2.1-0.27,3.15-0.39c1.06-0.12,2.08,0.14,3.07,0.49c1.26,0.44,2.51,0.32,3.75-0.01c1.04-0.28,1.26-0.8,0.7-1.71
	c-0.51-0.84-1.12-1.61-1.69-2.42c-0.05-0.08-0.14-0.13-0.22-0.21c-0.06,0.1-0.1,0.16-0.14,0.23c-0.33,0.52-0.7,0.66-1.13,0.42
	c-0.45-0.25-0.52-0.65-0.22-1.2c0.8-1.45,1.22-3.02,1.23-4.65C36.28,27.48,36.15,25.29,36.08,23z M10.62,10.2
	c-0.03-0.04-0.05-0.09-0.08-0.13c-0.65,0.18-1.3,0.36-1.96,0.54c-1.52,0.42-2.43,1.57-2.44,3.14c-0.01,1.59,0,3.18,0,4.77
	c0,0.94,0.3,1.79,1.03,2.38c0.65,0.53,1.36,1.02,2.13,1.36c2.39,1.05,4.95,1.35,7.52,1.56c2.8,0.23,5.6,0.3,8.39,0.07
	c2.08-0.17,4.14-0.52,6.2-0.8c0.17-0.02,0.38-0.15,0.48-0.29c0.73-0.98,0.82-3.17,0.17-4.22c-0.38-0.61-0.92-1.02-1.67-1
	c-0.97,0.03-1.93,0.12-2.9,0.16c-4.93,0.18-9.84,0.03-14.71-0.76c-1.54-0.25-3.06-0.6-4.5-1.22c-0.49-0.21-0.65-0.59-0.47-1.02
	c0.18-0.43,0.56-0.58,1.05-0.41c0.27,0.1,0.53,0.21,0.8,0.31c2.58,0.89,5.27,1.22,7.97,1.43c4.36,0.34,8.71,0.34,13.06-0.17
	c1.52-0.18,3.03-0.41,4.46-0.99c0.71-0.29,0.79-0.7,0.27-1.28c-0.14-0.15-0.31-0.32-0.5-0.38c-1.09-0.35-1.77-1.16-2.29-2.09
	c-0.49-0.87-1.19-1.42-2.13-1.7c-0.22-0.06-0.42-0.17-0.64-0.24c-1.16-0.38-2.18-1-3.16-1.75c-0.82-0.63-1.73-1.17-2.64-1.67
	c-0.87-0.48-1.82-0.5-2.78-0.28c-1.4,0.32-2.56,1.07-3.62,1.99c-0.52,0.45-1.1,0.75-1.77,0.87c-0.48,0.09-0.95,0.2-1.43,0.24
	c-0.56,0.04-0.98,0.28-1.31,0.71c-0.38,0.51-0.72,1.06-1.14,1.53c-0.46,0.52-0.96,1-1.5,1.43c-0.41,0.33-0.85,0.22-1.11-0.15
	c-0.27-0.39-0.17-0.8,0.26-1.13C9.99,10.75,10.3,10.47,10.62,10.2z M33.76,22.37c0.95-0.39,1.75-0.82,2.42-1.49
	c0.56-0.57,0.94-1.24,0.96-2.04c0.03-1.07,0.01-2.15,0.01-3.22c0-0.02-0.04-0.03-0.1-0.07c-1.19,0.89-2.58,1.35-4.08,1.67
	C34.32,18.79,34.22,20.51,33.76,22.37z M36.98,13.11c0.24-0.74,0.22-1.38-0.24-1.92c-0.81-0.94-1.94-1.18-3.2-1.42
	c0.25,0.37,0.4,0.65,0.6,0.88c0.28,0.33,0.53,0.77,0.9,0.92C35.81,11.92,36.47,12.34,36.98,13.11z"/>
<path class="st0" d="M22.42,13.14c-0.42,0-0.78-0.36-0.77-0.79s0.36-0.76,0.8-0.75c0.42,0.01,0.74,0.34,0.74,0.75
	C23.2,12.79,22.85,13.14,22.42,13.14z"/>
<path class="st0" d="M20.1,13.91c0,0.42-0.36,0.78-0.78,0.78s-0.77-0.37-0.76-0.79s0.33-0.74,0.75-0.74
	C19.74,13.15,20.09,13.49,20.1,13.91z"/>
<path class="st0" d="M19.33,8.49c0.42,0,0.78,0.36,0.77,0.79s-0.36,0.76-0.8,0.75c-0.42-0.01-0.74-0.33-0.74-0.75
	C18.55,8.85,18.9,8.49,19.33,8.49z"/>
<path class="st0" d="M15.45,10.81c0,0.42-0.35,0.77-0.78,0.77c-0.41,0-0.74-0.33-0.75-0.74c-0.01-0.44,0.31-0.78,0.75-0.79
	C15.09,10.04,15.44,10.39,15.45,10.81z"/>
<path class="st0" d="M15.45,13.91c0,0.42-0.36,0.78-0.78,0.78s-0.76-0.36-0.76-0.79c0.01-0.42,0.32-0.74,0.74-0.74
	C15.09,13.15,15.44,13.49,15.45,13.91z"/>
</svg>
