<?xml version="1.0" encoding="utf-8"?>
<!-- Generator: Adobe Illustrator 26.0.3, SVG Export Plug-In . SVG Version: 6.00 Build 0)  -->
<svg version="1.1" id="Layer_1" xmlns="http://www.w3.org/2000/svg" xmlns:xlink="http://www.w3.org/1999/xlink" x="0px" y="0px"
	 viewBox="0 0 45 45" style="enable-background:new 0 0 45 45;" xml:space="preserve">
<style type="text/css">
	.st0{fill:#016672;}
</style>
<path class="st0" d="M24.41,44.57c-1.01-0.2-2.04-0.34-3.03-0.62c-1.86-0.52-3.52-1.45-5.03-2.73c0.28-0.33,0.54-0.64,0.74-0.88
	c1.09,0.63,2.1,1.33,3.2,1.82c7.63,3.39,16.39-1.36,17.76-9.58c0.44-2.66-0.06-5.16-1.09-7.59c-1.19-2.81-2.78-5.4-4.51-7.91
	c-2.28-3.32-4.6-6.62-6.91-9.92c-0.02-0.03-0.06-0.06-0.11-0.12c-0.99,1.43-1.98,2.85-2.99,4.32c-0.36-0.25-0.69-0.48-1.04-0.73
	c1.35-1.99,2.69-3.97,4.09-6.04c0.02,0.07,0.03,0.13,0.06,0.18c2.38,3.45,4.76,6.89,7.13,10.34c1.98,2.88,3.91,5.8,5.32,9.03
	c0.94,2.16,1.57,4.38,1.52,6.78c-0.14,6.28-4.81,11.97-10.97,13.3c-0.68,0.15-1.38,0.24-2.07,0.35
	C25.79,44.57,25.1,44.57,24.41,44.57z"/>
<path class="st0" d="M7.65,21.11c-0.32,0.27-0.63,0.53-0.96,0.82c-0.8-0.91-1.33-1.94-1.69-3.07c-0.74-2.35-0.34-4.6,0.74-6.75
	C6.39,10.83,7.1,9.56,7.9,8.36c1.74-2.61,3.56-5.17,5.36-7.77c0.01,0,0.05,0.01,0.07,0.04c1.78,2.59,3.57,5.17,5.32,7.78
	c1.19,1.76,2.25,3.6,2.87,5.65c1.46,4.86-1.85,10.05-6.89,10.81c-2.46,0.37-4.67-0.2-6.65-1.7c-0.1-0.08-0.19-0.16-0.31-0.26
	c0.27-0.32,0.53-0.62,0.82-0.95c0.12,0.09,0.24,0.16,0.35,0.24c2.3,1.65,4.79,1.99,7.37,0.84s4.01-3.21,4.34-6.01
	c0.19-1.63-0.27-3.15-1.04-4.54c-0.99-1.79-2.1-3.52-3.21-5.24c-0.91-1.39-1.9-2.73-2.86-4.09c-0.06-0.08-0.12-0.15-0.21-0.25
	c-2.08,3.17-4.53,6.08-6.2,9.48c-0.62,1.27-1.11,2.58-1.1,4.03c0.02,1.6,0.51,3.04,1.45,4.33C7.47,20.86,7.55,20.98,7.65,21.11z"/>
<path class="st0" d="M36.27,30.48c0.01,6.55-5.41,11.32-10.81,11.44c-0.02-0.39-0.03-0.79-0.05-1.16c5.9-0.93,9.07-4.37,9.66-10.28
	C35.43,30.48,35.83,30.48,36.27,30.48z"/>
<path class="st0" d="M16.21,39.38c-0.29,0.3-0.56,0.59-0.83,0.88c-3.43-3.22-5.07-9.13-3.28-13.95c0.38,0.12,0.77,0.24,1.18,0.37
	C11.85,31.48,12.95,35.68,16.21,39.38z"/>
<path class="st0" d="M13.57,22.34c-0.04-0.39-0.08-0.79-0.13-1.21c2.33-0.39,3.73-1.67,3.93-4.1c0.41,0,0.81,0,1.22,0
	C18.76,19.65,16.4,22.23,13.57,22.34z"/>
<path class="st0" d="M36.26,29.15c-0.42,0-0.81,0-1.23,0c0-0.42,0-0.82,0-1.25c0.4,0,0.8,0,1.23,0
	C36.26,28.3,36.26,28.7,36.26,29.15z"/>
<path class="st0" d="M17.37,15.68c0-0.43,0-0.83,0-1.24c0.42,0,0.81,0,1.24,0c0,0.41,0,0.82,0,1.24
	C18.2,15.68,17.8,15.68,17.37,15.68z"/>
</svg>
