<?xml version="1.0" encoding="utf-8"?>
<!-- Generator: Adobe Illustrator 26.0.3, SVG Export Plug-In . SVG Version: 6.00 Build 0)  -->
<svg version="1.1" id="Layer_1" xmlns="http://www.w3.org/2000/svg" xmlns:xlink="http://www.w3.org/1999/xlink" x="0px" y="0px"
	 viewBox="0 0 40 40" style="enable-background:new 0 0 40 40;" xml:space="preserve">
<style type="text/css">
	.st0{fill:#016672;}
</style>
<g>
	<path class="st0" d="M14.06,0c3.96,0,7.92,0,11.88,0c0.56,0.21,0.9,0.6,1.07,1.19c0.16,0.57,0.59,0.9,1.15,1.07
		c0.89,0.28,1.17,0.65,1.17,1.59c0,0.91,0,1.82,0,2.73c0,3.59-1.11,6.79-3.32,9.62c-0.06,0.08-0.11,0.16-0.17,0.25
		c0.08,0.03,0.13,0.05,0.18,0.06c2.23,0.45,4.46,0.9,6.69,1.34c0.1,0.02,0.25-0.04,0.33-0.12c0.3-0.28,0.65-0.41,1.06-0.4
		c1.41,0.01,2.81,0.03,4.22-0.01c0.82-0.02,1.38,0.27,1.68,1.03c0,3.54,0,7.08,0,10.62c-0.31,0.78-0.9,1.05-1.73,1.03
		c-1.37-0.03-2.75,0-4.13,0c-0.42,0-0.79-0.12-1.1-0.42c-0.07-0.07-0.21-0.13-0.3-0.11c-1.11,0.26-2.31,0.25-3.2,1.18
		c0.15,0.56,0.15,1.16-0.13,1.74c-0.27,0.58-0.74,0.95-1.3,1.19c0.22,1.61-0.09,2.26-1.44,3.03c0.02,0.11,0.04,0.22,0.06,0.33
		c0.23,1.23-0.48,2.38-1.69,2.7c-0.59,0.16-1.16,0.07-1.7-0.2c-0.71-0.35-1.42-0.69-2.12-1.04c-0.68,1.11-0.72,1.14-1.85,1.59
		c-0.29,0-0.57,0-0.86,0c-0.73-0.25-1.36-0.64-1.68-1.36c-1.39,0.45-2.43,0.03-3.16-1.17c-1.34,0.45-2.38,0.05-3.05-1.08
		c-0.6,0-1.16,0.1-1.66-0.02c-1.27-0.29-1.99-1.68-1.57-2.94c0.23-0.7,0.51-1.38,0.77-2.11c-0.21-0.09-0.39-0.15-0.56-0.23
		c-0.34-0.16-0.63-0.27-0.98,0.05c-0.17,0.16-0.51,0.18-0.77,0.18c-1.39,0.02-2.79-0.02-4.18,0.02C0.86,31.36,0.31,31.07,0,30.31
		c0-3.54,0-7.08,0-10.62c0.25-0.59,0.64-1.01,1.33-1.02c1.56-0.01,3.12-0.02,4.68,0.01c0.3,0.01,0.63,0.17,0.87,0.35
		c0.2,0.15,0.36,0.19,0.59,0.14c1.85-0.33,3.71-0.66,5.56-0.98c0.77-0.14,1.54-0.28,2.31-0.41c0.02-0.04,0.04-0.08,0.06-0.12
		c-0.16-0.13-0.33-0.25-0.48-0.39c-0.16-0.15-0.3-0.32-0.45-0.49c-2.09-2.4-3.39-5.17-3.69-8.34c-0.15-1.52-0.1-3.06-0.12-4.6
		c-0.01-0.93,0.27-1.3,1.17-1.59c0.55-0.18,0.98-0.51,1.14-1.08C13.16,0.6,13.5,0.21,14.06,0z M11.98,3.62
		c0.04,1.56-0.05,3.13,0.14,4.67c0.62,4.94,3.2,8.56,7.59,10.89c0.14,0.08,0.39,0.08,0.53,0.01c4.04-2.09,6.54-5.36,7.5-9.81
		c0.4-1.84,0.22-3.71,0.25-5.56c0-0.1-0.13-0.25-0.23-0.28c-1.01-0.33-1.69-0.99-2.05-1.99c-0.03-0.09-0.2-0.2-0.3-0.2
		c-3.59-0.01-7.18-0.01-10.78-0.01c-0.1,0-0.27,0.08-0.29,0.16C13.93,2.6,13.16,3.29,11.98,3.62z M21.66,37.13
		c0.77,0.38,1.51,0.74,2.24,1.09c0.62,0.3,1.18,0.14,1.44-0.4s0.03-1.1-0.59-1.4c-0.53-0.26-1.06-0.5-1.58-0.76
		c-0.43-0.21-0.58-0.6-0.4-0.96c0.18-0.35,0.55-0.44,0.98-0.24c0.52,0.24,1.02,0.51,1.55,0.74c0.22,0.09,0.48,0.16,0.71,0.15
		c0.43-0.03,0.78-0.39,0.85-0.8c0.07-0.42-0.11-0.83-0.51-1.05c-0.6-0.31-1.22-0.57-1.82-0.89c-0.19-0.1-0.41-0.3-0.44-0.49
		c-0.04-0.2,0.05-0.53,0.21-0.64c0.17-0.13,0.51-0.17,0.71-0.09c0.64,0.25,1.24,0.59,1.87,0.87c0.64,0.28,1.31-0.07,1.41-0.72
		c0.07-0.49-0.12-0.87-0.6-1.11c-0.58-0.29-1.18-0.55-1.75-0.85c-0.47-0.24-0.55-0.87-0.13-1.11c0.2-0.12,0.54-0.12,0.76-0.04
		c0.59,0.23,1.15,0.54,1.73,0.8c0.69,0.31,1.43-0.11,1.46-0.83c0.02-0.52-0.29-0.83-0.73-1.05c-2.33-1.19-4.65-2.38-6.98-3.57
		c-0.58-0.3-0.72-0.27-1.2,0.18c-1.22,1.15-2.45,2.3-3.67,3.45c-0.49,0.47-1.07,0.75-1.75,0.76c-1.12,0.02-1.98-0.46-2.48-1.46
		c-0.51-1.01-0.39-2,0.33-2.88c0.52-0.63,1.09-1.23,1.63-1.84c0.79-0.89,1.59-1.78,2.41-2.71c-0.3-0.19-0.49-0.43-0.91-0.35
		c-2.29,0.43-4.58,0.82-6.87,1.22c-0.72,0.13-1.45,0.26-2.18,0.39c0,0.19,0,0.33,0,0.47c0,2.45,0,4.89,0,7.34
		c0,0.39-0.11,0.87,0.08,1.14C7.6,29.78,8.1,29.83,8.45,30c0.23,0.11,0.38,0.09,0.58-0.09c0.96-0.84,2.36-0.75,3.23,0.18
		c0.08,0.08,0.14,0.18,0.21,0.27c0.65-0.44,1.31-0.58,2.02-0.4c0.73,0.18,1.22,0.66,1.56,1.29c1.79-0.57,2.85,0.15,3.36,2.24
		c0.96-0.08,1.73,0.26,2.26,1.09C22.18,35.42,22.04,36.27,21.66,37.13z M32.65,19.23c-0.11-0.03-0.18-0.06-0.26-0.08
		c-2.46-0.49-4.92-0.99-7.38-1.47c-0.16-0.03-0.37,0.06-0.51,0.16c-1,0.72-1.98,1.46-2.98,2.19c-0.93,0.67-1.88,0.86-2.87,0.12
		c-0.07-0.05-0.29-0.02-0.35,0.05c-1.35,1.5-2.69,3-4.03,4.51c-0.29,0.33-0.37,0.74-0.25,1.17c0.27,1,1.44,1.3,2.24,0.56
		c1.28-1.19,2.54-2.39,3.81-3.58c0.67-0.63,1.51-0.78,2.3-0.38c2.5,1.27,5,2.55,7.49,3.84c0.61,0.32,0.98,0.84,1.14,1.5
		c0.05,0.2,0.07,0.4,0.11,0.62c0.53-0.11,1.03-0.22,1.53-0.33C32.65,25.13,32.65,22.19,32.65,19.23z M34.02,18.68
		c0,3.35,0,6.66,0,9.96c1.56,0,3.09,0,4.62,0c0-3.34,0-6.64,0-9.96C37.09,18.68,35.57,18.68,34.02,18.68z M1.34,29.97
		c1.57,0,3.11,0,4.64,0c0-3.33,0-6.63,0-9.93c-1.56,0-3.1,0-4.64,0C1.34,23.36,1.34,26.65,1.34,29.97z M11.72,35.27
		c0,0.52,0.33,0.92,0.8,1.03s0.94-0.15,1.14-0.66c0.39-1,0.77-2.01,1.14-3.02c0.06-0.16,0.09-0.36,0.07-0.53
		c-0.05-0.44-0.38-0.77-0.8-0.84c-0.47-0.08-0.91,0.12-1.08,0.57c-0.42,1.07-0.82,2.16-1.22,3.24
		C11.74,35.14,11.73,35.23,11.72,35.27z M18.01,33.43c-0.01-0.52-0.34-0.92-0.78-1.01c-0.51-0.1-0.95,0.12-1.15,0.63
		c-0.4,1.01-0.78,2.03-1.15,3.06c-0.07,0.2-0.08,0.44-0.04,0.64c0.09,0.43,0.47,0.71,0.9,0.73s0.82-0.23,0.99-0.68
		c0.39-1,0.77-2.01,1.14-3.02C17.98,33.66,17.99,33.51,18.01,33.43z M11.55,31.72c0.01-0.49-0.33-0.92-0.76-1.02
		c-0.49-0.11-0.97,0.1-1.16,0.57c-0.34,0.84-0.66,1.69-0.96,2.55c-0.19,0.53,0.07,1.05,0.56,1.25c0.51,0.2,1.07-0.01,1.29-0.55
		c0.34-0.84,0.65-1.7,0.97-2.55C11.52,31.88,11.54,31.77,11.55,31.72z M17.97,37.6c0.01,0.55,0.33,0.94,0.81,1.05
		c0.44,0.1,0.91-0.14,1.1-0.6c0.25-0.6,0.47-1.21,0.69-1.82c0.22-0.6-0.02-1.16-0.55-1.35c-0.54-0.2-1.08,0.06-1.31,0.64
		c-0.23,0.58-0.44,1.16-0.66,1.75C18,37.39,17.98,37.54,17.97,37.6z"/>
	<path class="st0" d="M18.68,12.38c0.89-0.89,1.76-1.76,2.62-2.62c1.11-1.11,2.23-2.23,3.34-3.34c0.07-0.07,0.14-0.15,0.22-0.22
		c0.31-0.26,0.69-0.25,0.95,0.02c0.25,0.26,0.25,0.63-0.01,0.92c-0.23,0.25-0.47,0.48-0.71,0.72c-1.92,1.92-3.84,3.85-5.77,5.77
		c-0.51,0.51-0.78,0.51-1.28,0.01c-0.82-0.82-1.65-1.62-2.44-2.47c-0.15-0.16-0.23-0.48-0.18-0.69c0.04-0.18,0.29-0.41,0.47-0.43
		c0.22-0.02,0.51,0.1,0.68,0.25c0.62,0.57,1.21,1.19,1.8,1.78C18.46,12.18,18.55,12.26,18.68,12.38z"/>
</g>
</svg>
