<?xml version="1.0" encoding="utf-8"?>
<!-- Generator: Adobe Illustrator 26.0.3, SVG Export Plug-In . SVG Version: 6.00 Build 0)  -->
<svg version="1.1" id="Layer_1" xmlns="http://www.w3.org/2000/svg" xmlns:xlink="http://www.w3.org/1999/xlink" x="0px" y="0px"
	 viewBox="0 0 45 45" style="enable-background:new 0 0 45 45;" xml:space="preserve">
<path d="M15.97,44.47c-0.66-0.24-1.14-0.73-1.62-1.21c-1.99-2.01-3.99-4-5.99-6c-1.1-1.11-1.1-2.26,0.01-3.37
	c2.12-2.12,4.24-4.24,6.35-6.36c1.12-1.12,2.26-1.12,3.37-0.01c2.13,2.13,4.26,4.26,6.38,6.4c1.1,1.1,1.1,2.25,0.01,3.35
	c-2.02,2.03-4.06,4.06-6.08,6.1c-0.47,0.47-0.94,0.92-1.58,1.13C16.54,44.47,16.26,44.47,15.97,44.47z M16.42,28.37
	c-0.14,0.1-0.27,0.16-0.36,0.25c-2.19,2.19-4.38,4.39-6.57,6.58c-0.25,0.25-0.28,0.46-0.02,0.73c2.2,2.2,4.4,4.4,6.6,6.61
	c0.24,0.24,0.45,0.25,0.69,0c2.2-2.21,4.4-4.41,6.6-6.61c0.26-0.26,0.24-0.48-0.01-0.73c-2.19-2.19-4.38-4.39-6.57-6.58
	C16.68,28.53,16.55,28.47,16.42,28.37z"/>
<path d="M16.83,0.33c0.51,0.26,1.02,0.5,1.52,0.79c2.41,1.38,4.82,2.78,7.22,4.17c1.33,0.77,1.63,1.9,0.86,3.23
	c-1.5,2.61-3.01,5.22-4.51,7.83c-0.78,1.35-1.89,1.66-3.22,0.88c-2.63-1.52-5.26-3.04-7.89-4.56c-1.26-0.73-1.57-1.88-0.85-3.14
	c0.4-0.7,0.8-1.4,1.21-2.08c0.2-0.33,0.5-0.52,0.9-0.44c0.37,0.07,0.64,0.31,0.68,0.69c0.02,0.24-0.06,0.51-0.17,0.73
	c-0.35,0.66-0.74,1.3-1.11,1.94c-0.26,0.46-0.24,0.56,0.21,0.82c2.64,1.53,5.28,3.06,7.93,4.58c0.43,0.25,0.53,0.23,0.78-0.21
	c1.53-2.66,3.06-5.32,4.6-7.98c0.2-0.35,0.14-0.57-0.21-0.77c-2.67-1.54-5.34-3.08-8-4.63c-0.34-0.2-0.55-0.12-0.73,0.21
	c-0.14,0.26-0.28,0.51-0.44,0.74c-0.28,0.4-0.75,0.51-1.13,0.3c-0.41-0.22-0.56-0.7-0.33-1.16c0.42-0.86,0.9-1.67,1.91-1.95
	C16.31,0.33,16.57,0.33,16.83,0.33z"/>
<path d="M24.31,19.96c0.01-1.08,0.6-1.85,1.59-2.12c1.34-0.37,2.68-0.72,4.02-1.08c1.69-0.45,3.37-0.91,5.06-1.35
	c1.32-0.35,2.36,0.23,2.72,1.54c0.82,3.03,1.64,6.06,2.43,9.1c0.34,1.29-0.28,2.3-1.56,2.67c-0.77,0.22-1.55,0.42-2.32,0.63
	c-0.57,0.15-1.04-0.09-1.17-0.57c-0.12-0.49,0.15-0.93,0.72-1.09c0.74-0.21,1.49-0.41,2.24-0.6c0.38-0.09,0.52-0.26,0.41-0.67
	c-0.8-2.96-1.59-5.93-2.38-8.89c-0.13-0.49-0.25-0.55-0.74-0.42c-2.94,0.79-5.89,1.58-8.83,2.38c-0.48,0.13-0.53,0.22-0.4,0.7
	c0.79,2.95,1.57,5.9,2.36,8.85c0.13,0.49,0.24,0.56,0.74,0.43c0.26-0.07,0.52-0.16,0.79-0.21c0.46-0.09,0.88,0.18,1.01,0.6
	c0.12,0.4-0.07,0.87-0.51,1.01c-0.54,0.17-1.1,0.34-1.67,0.37c-0.95,0.05-1.71-0.63-1.99-1.65c-0.61-2.27-1.22-4.54-1.82-6.81
	c-0.21-0.79-0.42-1.58-0.62-2.37C24.34,20.21,24.32,20.02,24.31,19.96z"/>
<path d="M14,5.66c0,0.5-0.36,0.88-0.85,0.88c-0.46,0-0.84-0.37-0.85-0.84c-0.01-0.47,0.39-0.88,0.86-0.88
	C13.63,4.82,14,5.19,14,5.66z"/>
<path d="M33.51,28.34c0.47,0,0.85,0.37,0.85,0.84c0,0.46-0.39,0.85-0.85,0.86c-0.49,0.01-0.87-0.38-0.86-0.88
	C32.66,28.68,33.02,28.34,33.51,28.34z"/>
<path d="M19.94,11.3c-0.02,0.47-0.41,0.85-0.87,0.83c-0.45-0.01-0.84-0.42-0.83-0.88c0.01-0.48,0.42-0.87,0.9-0.85
	C19.6,10.43,19.95,10.82,19.94,11.3z"/>
<path d="M35.25,21.42c0.01,0.47-0.36,0.87-0.82,0.88c-0.46,0.02-0.88-0.4-0.88-0.87c0-0.46,0.38-0.85,0.85-0.85
	C34.87,20.58,35.25,20.95,35.25,21.42z"/>
<path d="M31.81,26.26c0,0.47-0.38,0.86-0.83,0.87c-0.46,0.01-0.88-0.42-0.87-0.89c0.01-0.46,0.4-0.84,0.86-0.84
	C31.44,25.41,31.81,25.79,31.81,26.26z"/>
<path d="M22.63,7.82c0.01,0.48-0.35,0.86-0.82,0.87s-0.85-0.35-0.87-0.82c-0.02-0.49,0.37-0.9,0.84-0.9
	C22.24,6.97,22.62,7.35,22.63,7.82z"/>
<path d="M17.15,9.21c-0.47,0.01-0.85-0.36-0.86-0.84c-0.01-0.49,0.38-0.9,0.85-0.89c0.46,0.01,0.83,0.39,0.83,0.87
	C17.98,8.83,17.61,9.21,17.15,9.21z"/>
<path d="M15.38,34.14c-0.01,0.47-0.41,0.85-0.86,0.84s-0.84-0.42-0.84-0.87c0-0.48,0.41-0.87,0.89-0.85
	C15.04,33.27,15.39,33.66,15.38,34.14z"/>
<path d="M19.59,34.59c-0.02,0.46-0.43,0.84-0.88,0.82c-0.45-0.03-0.83-0.44-0.82-0.89c0.02-0.48,0.43-0.86,0.92-0.83
	C19.27,33.72,19.62,34.11,19.59,34.59z"/>
<path d="M17.7,38.2c-0.02,0.46-0.42,0.85-0.87,0.83c-0.45-0.02-0.84-0.43-0.83-0.88c0.01-0.48,0.43-0.86,0.91-0.84
	C17.37,37.33,17.72,37.72,17.7,38.2z"/>
</svg>
